<svg width="626" height="378" viewBox="0 0 626 378" fill="none" xmlns="http://www.w3.org/2000/svg">
<path d="M3 374V376H5H134.5C160.182 376 183.866 369.576 205.513 356.725C227.467 343.889 244.879 326.648 257.72 305.021L257.727 305.009C270.574 283.033 277 259.185 277 233.5V166.5C277 140.817 270.575 117.132 257.723 95.4843C244.884 73.5256 227.473 56.115 205.515 43.2764C183.867 30.4248 160.182 24 134.5 24H5H3V26V374Z" stroke="white" stroke-width="4"/>
<line x1="1.48134" y1="363.068" x2="109.481" y2="334.069" stroke="white" stroke-width="4"/>
<path d="M203.181 323.385L227.5 342" stroke="white" stroke-width="4"/>
<path d="M200.514 289.067L258.5 305" stroke="white" stroke-width="4"/>
<path d="M1.79346 367.011L225 344" stroke="white" stroke-width="4"/>
<line x1="79.451" y1="342.052" x2="187.451" y2="367.052" stroke="white" stroke-width="4"/>
<line x1="28.2411" y1="356.015" x2="168.241" y2="373.015" stroke="white" stroke-width="4"/>
<line x1="2.17997" y1="359.176" x2="111.18" y2="310.176" stroke="white" stroke-width="4"/>
<line y1="-2" x2="134.749" y2="-2" transform="matrix(-0.912907 -0.408167 0.381684 -0.924293 128 99)" stroke="white" stroke-width="4"/>
<line x1="127.508" y1="103.938" x2="1.50769" y2="71.9385" stroke="white" stroke-width="4"/>
<line x1="127.826" y1="106.992" x2="1.82606" y2="95.9924" stroke="white" stroke-width="4"/>
<line x1="128.142" y1="109.995" x2="2.14249" y2="118.995" stroke="white" stroke-width="4"/>
<path d="M186.5 105.5L257 95.0562" stroke="white" stroke-width="4"/>
<path d="M188 107.5L260.5 101.355" stroke="white" stroke-width="4"/>
<path d="M188.5 110L264 107.789" stroke="white" stroke-width="4"/>
<path d="M187.5 113.5L267 115.303" stroke="white" stroke-width="4"/>
<mask id="path-17-outside-1_750_5" maskUnits="userSpaceOnUse" x="297" y="11" width="319" height="366" fill="black">
<rect fill="white" x="297" y="11" width="319" height="366"/>
<path d="M303.85 123V18.6H347.5C354.8 18.6 361.1 19.95 366.4 22.65C372.5 25.75 377.35 30.2 380.95 36C384.55 41.7 386.35 48 386.35 54.9C386.35 61.8 384.55 68.15 380.95 73.95C377.45 79.75 372.65 84.2 366.55 87.3C361.35 90 355 91.35 347.5 91.35H331.15V123H303.85ZM406.035 59.25C406.035 51.45 407.985 44.2 411.885 37.5C415.785 30.8 421.035 25.5 427.635 21.6C434.335 17.7 441.635 15.75 449.535 15.75C457.435 15.75 464.685 17.7 471.285 21.6C477.985 25.5 483.285 30.8 487.185 37.5C491.085 44.2 493.035 51.45 493.035 59.25V82.35C493.035 90.15 491.085 97.4 487.185 104.1C483.285 110.8 477.985 116.1 471.285 120C464.685 123.9 457.435 125.85 449.535 125.85C441.635 125.85 434.335 123.9 427.635 120C421.035 116.1 415.785 110.8 411.885 104.1C407.985 97.4 406.035 90.15 406.035 82.35V59.25ZM433.335 82.35C433.335 87.15 434.835 91.25 437.835 94.65C440.835 98.05 444.735 99.75 449.535 99.75C454.235 99.75 458.085 98.05 461.085 94.65C464.085 91.25 465.585 87.15 465.585 82.35V59.1C465.585 54.2 464.085 50.1 461.085 46.8C458.085 43.5 454.235 41.85 449.535 41.85C444.735 41.85 440.835 43.5 437.835 46.8C434.835 50.1 433.335 54.2 433.335 59.1V82.35ZM557.72 54.3L548.12 18.6H610.07L582.02 123H576.17L560.57 64.95L544.97 123H539.12L511.07 18.6H516.77L541.97 112.65L557.72 54.3ZM602.87 24.15H555.32L563.42 54.3L579.17 112.65L602.87 24.15ZM301 143.6H377.05V170H328.3V183.2H368.8V208.25H328.3V221.6H377.05V248H301V143.6ZM492.735 248H412.485V143.6H453.135C461.835 143.6 468.935 145.15 474.435 148.25C479.835 151.25 484.035 155.35 487.035 160.55C490.035 165.75 491.535 171.5 491.535 177.8C491.535 185.6 489.135 192.6 484.335 198.8C479.535 204.9 473.485 208.95 466.185 210.95L492.735 248ZM421.935 149.15L462.735 206.15C469.435 204.75 474.985 201.4 479.385 196.1C483.785 190.8 485.985 184.7 485.985 177.8C485.985 172.3 484.635 167.3 481.935 162.8C479.235 158.3 475.435 154.85 470.535 152.45C466.135 150.25 460.385 149.15 453.285 149.15H421.935ZM418.035 152.75V206.6H456.585L418.035 152.75ZM418.035 242.45H482.235L460.335 212L455.685 212.15H418.035V242.45ZM523.07 143.6H599.12V170H550.37V183.2H590.87V208.25H550.37V221.6H599.12V248H523.07V143.6ZM301 373V268.6H339.85C347.45 268.6 354.45 270.5 360.85 274.3C367.35 278.1 372.5 283.25 376.3 289.75C380.1 296.15 382 303.15 382 310.75V330.85C382 338.45 380.1 345.5 376.3 352C372.5 358.4 367.35 363.5 360.85 367.3C354.45 371.1 347.45 373 339.85 373H301ZM456.885 268.6C463.485 268.6 468.735 269.6 472.635 271.6C477.335 274 480.935 277.3 483.435 281.5C486.035 285.7 487.335 290.4 487.335 295.6C487.335 300.5 486.035 305.05 483.435 309.25C480.835 313.35 477.285 316.6 472.785 319C478.185 320.9 482.735 324.2 486.435 328.9C490.135 333.6 491.985 338.9 491.985 344.8C491.985 350 490.635 354.8 487.935 359.2C485.335 363.5 481.835 366.9 477.435 369.4C475.235 370.6 472.785 371.5 470.085 372.1C467.385 372.7 463.785 373 459.285 373H413.085V268.6H456.885ZM516.02 268.6H605.12L563.42 330.25V373H557.87V330.25L516.02 268.6Z"/>
</mask>
<path d="M303.85 123H299.85V127H303.85V123ZM303.85 18.6V14.6H299.85V18.6H303.85ZM366.4 22.65L364.584 26.2142L364.588 26.2159L366.4 22.65ZM380.95 36L377.551 38.1094L377.56 38.1227L377.568 38.136L380.95 36ZM380.95 73.95L377.551 71.8405L377.538 71.8619L377.525 71.8833L380.95 73.95ZM366.55 87.3L364.738 83.7341L364.722 83.742L364.707 83.75L366.55 87.3ZM331.15 91.35V87.35H327.15V91.35H331.15ZM331.15 123V127H335.15V123H331.15ZM307.85 123V18.6H299.85V123H307.85ZM303.85 22.6H347.5V14.6H303.85V22.6ZM347.5 22.6C354.31 22.6 359.96 23.8585 364.584 26.2142L368.216 19.0858C362.24 16.0415 355.29 14.6 347.5 14.6V22.6ZM364.588 26.2159C370.037 28.9854 374.338 32.9324 377.551 38.1094L384.349 33.8905C380.362 27.4676 374.963 22.5146 368.212 19.0841L364.588 26.2159ZM377.568 38.136C380.754 43.181 382.35 48.7373 382.35 54.9H390.35C390.35 47.2627 388.346 40.219 384.332 33.864L377.568 38.136ZM382.35 54.9C382.35 61.063 380.754 66.6811 377.551 71.8405L384.349 76.0594C388.346 69.6189 390.35 62.537 390.35 54.9H382.35ZM377.525 71.8833C374.416 77.0358 370.178 80.9695 364.738 83.7341L368.362 90.8659C375.122 87.4305 380.484 82.4642 384.375 76.0167L377.525 71.8833ZM364.707 83.75C360.213 86.0832 354.533 87.35 347.5 87.35V95.35C355.467 95.35 362.487 93.9168 368.393 90.85L364.707 83.75ZM347.5 87.35H331.15V95.35H347.5V87.35ZM327.15 91.35V123H335.15V91.35H327.15ZM331.15 119H303.85V127H331.15V119ZM411.885 37.5L408.428 35.4877L408.428 35.4877L411.885 37.5ZM427.635 21.6L425.623 18.143L425.612 18.1496L425.6 18.1563L427.635 21.6ZM471.285 21.6L469.25 25.0437L469.262 25.0504L469.273 25.057L471.285 21.6ZM487.185 37.5L490.642 35.4877L490.642 35.4877L487.185 37.5ZM487.185 104.1L490.642 106.112L490.642 106.112L487.185 104.1ZM471.285 120L469.273 116.543L469.262 116.55L469.25 116.556L471.285 120ZM427.635 120L425.6 123.444L425.612 123.45L425.623 123.457L427.635 120ZM411.885 104.1L408.428 106.112L408.428 106.112L411.885 104.1ZM437.835 94.65L440.835 92.0035L440.835 92.0035L437.835 94.65ZM461.085 94.65L458.086 92.0035L458.086 92.0035L461.085 94.65ZM410.035 59.25C410.035 52.1524 411.8 45.5973 415.342 39.5123L408.428 35.4877C404.17 42.8026 402.035 50.7476 402.035 59.25H410.035ZM415.342 39.5123C418.902 33.3961 423.666 28.5918 429.67 25.0437L425.6 18.1563C418.405 22.4081 412.668 28.2039 408.428 35.4877L415.342 39.5123ZM429.647 25.057C435.724 21.5197 442.328 19.75 449.535 19.75V11.75C440.942 11.75 432.946 13.8803 425.623 18.143L429.647 25.057ZM449.535 19.75C456.742 19.75 463.286 21.5193 469.25 25.0437L473.32 18.1563C466.084 13.8806 458.128 11.75 449.535 11.75V19.75ZM469.273 25.057C475.374 28.6086 480.177 33.4108 483.728 39.5123L490.642 35.4877C486.394 28.1892 480.596 22.3914 473.297 18.143L469.273 25.057ZM483.728 39.5123C487.27 45.5973 489.035 52.1524 489.035 59.25H497.035C497.035 50.7476 494.9 42.8026 490.642 35.4877L483.728 39.5123ZM489.035 59.25V82.35H497.035V59.25H489.035ZM489.035 82.35C489.035 89.4476 487.27 96.0026 483.728 102.088L490.642 106.112C494.9 98.7974 497.035 90.8524 497.035 82.35H489.035ZM483.728 102.088C480.177 108.189 475.374 112.991 469.273 116.543L473.297 123.457C480.596 119.209 486.394 113.411 490.642 106.112L483.728 102.088ZM469.25 116.556C463.286 120.081 456.742 121.85 449.535 121.85V129.85C458.128 129.85 466.084 127.719 473.32 123.444L469.25 116.556ZM449.535 121.85C442.328 121.85 435.724 120.08 429.647 116.543L425.623 123.457C432.946 127.72 440.942 129.85 449.535 129.85V121.85ZM429.67 116.556C423.666 113.008 418.902 108.204 415.342 102.088L408.428 106.112C412.668 113.396 418.405 119.192 425.6 123.444L429.67 116.556ZM415.342 102.088C411.8 96.0026 410.035 89.4476 410.035 82.35H402.035C402.035 90.8524 404.17 98.7974 408.428 106.112L415.342 102.088ZM410.035 82.35V59.25H402.035V82.35H410.035ZM429.335 82.35C429.335 88.0624 431.151 93.1203 434.836 97.2965L440.835 92.0035C438.519 89.3797 437.335 86.2376 437.335 82.35H429.335ZM434.836 97.2965C438.644 101.613 443.664 103.75 449.535 103.75V95.75C445.807 95.75 443.026 94.4874 440.835 92.0035L434.836 97.2965ZM449.535 103.75C455.335 103.75 460.294 101.592 464.085 97.2965L458.086 92.0035C455.876 94.5077 453.135 95.75 449.535 95.75V103.75ZM464.085 97.2965C467.769 93.1203 469.585 88.0624 469.585 82.35H461.585C461.585 86.2376 460.401 89.3797 458.086 92.0035L464.085 97.2965ZM469.585 82.35V59.1H461.585V82.35H469.585ZM469.585 59.1C469.585 53.3113 467.783 48.2207 464.045 44.1093L458.125 49.4907C460.388 51.9793 461.585 55.0887 461.585 59.1H469.585ZM464.045 44.1093C460.242 39.926 455.294 37.85 449.535 37.85V45.85C453.177 45.85 455.928 47.074 458.125 49.4907L464.045 44.1093ZM449.535 37.85C443.705 37.85 438.696 39.9066 434.875 44.1093L440.795 49.4907C442.974 47.0934 445.766 45.85 449.535 45.85V37.85ZM434.875 44.1093C431.138 48.2207 429.335 53.3113 429.335 59.1H437.335C437.335 55.0887 438.533 51.9793 440.795 49.4907L434.875 44.1093ZM429.335 59.1V82.35H437.335V59.1H429.335ZM557.72 54.3L561.582 55.3424L561.863 54.302L561.583 53.2613L557.72 54.3ZM548.12 18.6V14.6H542.903L544.258 19.6387L548.12 18.6ZM610.07 18.6L613.933 19.6379L615.287 14.6H610.07V18.6ZM582.02 123V127H585.087L585.883 124.038L582.02 123ZM576.17 123L572.307 124.038L573.103 127H576.17V123ZM560.57 64.95L564.433 63.9119L560.57 49.5373L556.707 63.9119L560.57 64.95ZM544.97 123V127H548.037L548.833 124.038L544.97 123ZM539.12 123L535.257 124.038L536.053 127H539.12V123ZM511.07 18.6V14.6H505.854L507.207 19.6379L511.07 18.6ZM516.77 18.6L520.634 17.5647L519.84 14.6H516.77V18.6ZM541.97 112.65L538.107 113.685L541.956 128.052L545.832 113.692L541.97 112.65ZM602.87 24.15L606.734 25.1847L608.082 20.15H602.87V24.15ZM555.32 24.15V20.15H550.104L551.457 25.1878L555.32 24.15ZM563.42 54.3L559.557 55.3378L559.559 55.3424L563.42 54.3ZM579.17 112.65L575.309 113.692L579.186 128.056L583.034 113.685L579.17 112.65ZM561.583 53.2613L551.983 17.5613L544.258 19.6387L553.858 55.3387L561.583 53.2613ZM548.12 22.6H610.07V14.6H548.12V22.6ZM606.207 17.5621L578.157 121.962L585.883 124.038L613.933 19.6379L606.207 17.5621ZM582.02 119H576.17V127H582.02V119ZM580.033 121.962L564.433 63.9119L556.707 65.9881L572.307 124.038L580.033 121.962ZM556.707 63.9119L541.107 121.962L548.833 124.038L564.433 65.9881L556.707 63.9119ZM544.97 119H539.12V127H544.97V119ZM542.983 121.962L514.933 17.5621L507.207 19.6379L535.257 124.038L542.983 121.962ZM511.07 22.6H516.77V14.6H511.07V22.6ZM512.907 19.6352L538.107 113.685L545.834 111.615L520.634 17.5647L512.907 19.6352ZM545.832 113.692L561.582 55.3424L553.859 53.2576L538.109 111.608L545.832 113.692ZM602.87 20.15H555.32V28.15H602.87V20.15ZM551.457 25.1878L559.557 55.3378L567.283 53.2622L559.183 23.1122L551.457 25.1878ZM559.559 55.3424L575.309 113.692L583.032 111.608L567.282 53.2576L559.559 55.3424ZM583.034 113.685L606.734 25.1847L599.006 23.1153L575.306 111.615L583.034 113.685ZM301 143.6V139.6H297V143.6H301ZM377.05 143.6H381.05V139.6H377.05V143.6ZM377.05 170V174H381.05V170H377.05ZM328.3 170V166H324.3V170H328.3ZM328.3 183.2H324.3V187.2H328.3V183.2ZM368.8 183.2H372.8V179.2H368.8V183.2ZM368.8 208.25V212.25H372.8V208.25H368.8ZM328.3 208.25V204.25H324.3V208.25H328.3ZM328.3 221.6H324.3V225.6H328.3V221.6ZM377.05 221.6H381.05V217.6H377.05V221.6ZM377.05 248V252H381.05V248H377.05ZM301 248H297V252H301V248ZM301 147.6H377.05V139.6H301V147.6ZM373.05 143.6V170H381.05V143.6H373.05ZM377.05 166H328.3V174H377.05V166ZM324.3 170V183.2H332.3V170H324.3ZM328.3 187.2H368.8V179.2H328.3V187.2ZM364.8 183.2V208.25H372.8V183.2H364.8ZM368.8 204.25H328.3V212.25H368.8V204.25ZM324.3 208.25V221.6H332.3V208.25H324.3ZM328.3 225.6H377.05V217.6H328.3V225.6ZM373.05 221.6V248H381.05V221.6H373.05ZM377.05 244H301V252H377.05V244ZM305 248V143.6H297V248H305ZM492.735 248V252H500.523L495.987 245.67L492.735 248ZM412.485 248H408.485V252H412.485V248ZM412.485 143.6V139.6H408.485V143.6H412.485ZM474.435 148.25L472.471 151.735L472.482 151.741L472.493 151.747L474.435 148.25ZM487.035 160.55L483.57 162.549L483.57 162.549L487.035 160.55ZM484.335 198.8L487.479 201.274L487.488 201.261L487.498 201.249L484.335 198.8ZM466.185 210.95L465.128 207.092L459.587 208.61L462.934 213.28L466.185 210.95ZM421.935 149.15V145.15H414.153L418.683 151.478L421.935 149.15ZM462.735 206.15L459.483 208.478L461 210.599L463.553 210.065L462.735 206.15ZM479.385 196.1L476.308 193.545L476.308 193.545L479.385 196.1ZM470.535 152.45L468.746 156.028L468.761 156.035L468.776 156.042L470.535 152.45ZM418.035 152.75L421.288 150.422L414.035 140.291V152.75H418.035ZM418.035 206.6H414.035V210.6H418.035V206.6ZM456.585 206.6V210.6H464.368L459.838 204.272L456.585 206.6ZM418.035 242.45H414.035V246.45H418.035V242.45ZM482.235 242.45V246.45H490.039L485.483 240.114L482.235 242.45ZM460.335 212L463.583 209.664L462.337 207.933L460.206 208.002L460.335 212ZM455.685 212.15V216.15H455.75L455.814 216.148L455.685 212.15ZM418.035 212.15V208.15H414.035V212.15H418.035ZM492.735 244H412.485V252H492.735V244ZM416.485 248V143.6H408.485V248H416.485ZM412.485 147.6H453.135V139.6H412.485V147.6ZM453.135 147.6C461.395 147.6 467.755 149.076 472.471 151.735L476.399 144.765C470.115 141.224 462.275 139.6 453.135 139.6V147.6ZM472.493 151.747C477.278 154.405 480.944 157.996 483.57 162.549L490.5 158.551C487.127 152.704 482.392 148.095 476.378 144.753L472.493 151.747ZM483.57 162.549C486.202 167.111 487.535 172.166 487.535 177.8H495.535C495.535 170.834 493.868 164.389 490.5 158.551L483.57 162.549ZM487.535 177.8C487.535 184.709 485.433 190.848 481.172 196.351L487.498 201.249C492.838 194.352 495.535 186.491 495.535 177.8H487.535ZM481.192 196.326C476.907 201.772 471.58 205.325 465.128 207.092L467.242 214.808C475.39 212.575 482.164 208.028 487.479 201.274L481.192 196.326ZM462.934 213.28L489.484 250.33L495.987 245.67L469.437 208.62L462.934 213.28ZM418.683 151.478L459.483 208.478L465.988 203.822L425.188 146.822L418.683 151.478ZM463.553 210.065C471.145 208.479 477.489 204.646 482.463 198.655L476.308 193.545C472.481 198.154 467.726 201.021 461.917 202.235L463.553 210.065ZM482.463 198.655C487.46 192.636 489.985 185.631 489.985 177.8H481.985C481.985 183.769 480.11 188.964 476.308 193.545L482.463 198.655ZM489.985 177.8C489.985 171.611 488.456 165.894 485.365 160.742L478.505 164.858C480.814 168.706 481.985 172.989 481.985 177.8H489.985ZM485.365 160.742C482.252 155.553 477.859 151.583 472.295 148.858L468.776 156.042C473.012 158.117 476.219 161.047 478.505 164.858L485.365 160.742ZM472.324 148.872C467.178 146.299 460.75 145.15 453.285 145.15V153.15C460.02 153.15 465.092 154.201 468.746 156.028L472.324 148.872ZM453.285 145.15H421.935V153.15H453.285V145.15ZM414.035 152.75V206.6H422.035V152.75H414.035ZM418.035 210.6H456.585V202.6H418.035V210.6ZM459.838 204.272L421.288 150.422L414.783 155.078L453.333 208.928L459.838 204.272ZM418.035 246.45H482.235V238.45H418.035V246.45ZM485.483 240.114L463.583 209.664L457.088 214.336L478.988 244.786L485.483 240.114ZM460.206 208.002L455.556 208.152L455.814 216.148L460.464 215.998L460.206 208.002ZM455.685 208.15H418.035V216.15H455.685V208.15ZM414.035 212.15V242.45H422.035V212.15H414.035ZM523.07 143.6V139.6H519.07V143.6H523.07ZM599.12 143.6H603.12V139.6H599.12V143.6ZM599.12 170V174H603.12V170H599.12ZM550.37 170V166H546.37V170H550.37ZM550.37 183.2H546.37V187.2H550.37V183.2ZM590.87 183.2H594.87V179.2H590.87V183.2ZM590.87 208.25V212.25H594.87V208.25H590.87ZM550.37 208.25V204.25H546.37V208.25H550.37ZM550.37 221.6H546.37V225.6H550.37V221.6ZM599.12 221.6H603.12V217.6H599.12V221.6ZM599.12 248V252H603.12V248H599.12ZM523.07 248H519.07V252H523.07V248ZM523.07 147.6H599.12V139.6H523.07V147.6ZM595.12 143.6V170H603.12V143.6H595.12ZM599.12 166H550.37V174H599.12V166ZM546.37 170V183.2H554.37V170H546.37ZM550.37 187.2H590.87V179.2H550.37V187.2ZM586.87 183.2V208.25H594.87V183.2H586.87ZM590.87 204.25H550.37V212.25H590.87V204.25ZM546.37 208.25V221.6H554.37V208.25H546.37ZM550.37 225.6H599.12V217.6H550.37V225.6ZM595.12 221.6V248H603.12V221.6H595.12ZM599.12 244H523.07V252H599.12V244ZM527.07 248V143.6H519.07V248H527.07ZM301 373H297V377H301V373ZM301 268.6V264.6H297V268.6H301ZM360.85 274.3L358.808 277.739L358.82 277.746L358.831 277.753L360.85 274.3ZM376.3 289.75L372.847 291.769L372.854 291.78L372.861 291.792L376.3 289.75ZM376.3 352L379.739 354.042L379.746 354.03L379.753 354.019L376.3 352ZM360.85 367.3L358.831 363.847L358.82 363.854L358.808 363.861L360.85 367.3ZM305 373V268.6H297V373H305ZM301 272.6H339.85V264.6H301V272.6ZM339.85 272.6C346.747 272.6 353.039 274.314 358.808 277.739L362.892 270.861C355.861 266.686 348.153 264.6 339.85 264.6V272.6ZM358.831 277.753C364.738 281.206 369.394 285.862 372.847 291.769L379.753 287.731C375.606 280.638 369.962 274.994 362.869 270.847L358.831 277.753ZM372.861 291.792C376.286 297.561 378 303.853 378 310.75H386C386 302.447 383.914 294.739 379.739 287.708L372.861 291.792ZM378 310.75V330.85H386V310.75H378ZM378 330.85C378 337.747 376.285 344.1 372.847 349.981L379.753 354.019C383.915 346.9 386 339.153 386 330.85H378ZM372.861 349.958C369.411 355.768 364.753 360.385 358.831 363.847L362.869 370.753C369.947 366.615 375.589 361.032 379.739 354.042L372.861 349.958ZM358.808 363.861C353.039 367.286 346.747 369 339.85 369V377C348.153 377 355.861 374.914 362.892 370.739L358.808 363.861ZM339.85 369H301V377H339.85V369ZM472.635 271.6L470.81 275.159L470.816 275.162L472.635 271.6ZM483.435 281.5L479.998 283.546L480.016 283.576L480.034 283.605L483.435 281.5ZM483.435 309.25L486.813 311.392L486.825 311.374L486.836 311.355L483.435 309.25ZM472.785 319L470.903 315.471L462.873 319.753L471.458 322.773L472.785 319ZM486.435 328.9L483.292 331.374L483.292 331.374L486.435 328.9ZM487.935 359.2L484.526 357.108L484.519 357.119L484.512 357.13L487.935 359.2ZM477.435 369.4L479.351 372.912L479.381 372.895L479.411 372.878L477.435 369.4ZM413.085 373H409.085V377H413.085V373ZM413.085 268.6V264.6H409.085V268.6H413.085ZM456.885 272.6C463.144 272.6 467.688 273.559 470.81 275.159L474.46 268.041C469.782 265.641 463.826 264.6 456.885 264.6V272.6ZM470.816 275.162C474.9 277.248 477.914 280.046 479.998 283.546L486.872 279.454C483.956 274.554 479.77 270.752 474.454 268.038L470.816 275.162ZM480.034 283.605C482.222 287.139 483.335 291.103 483.335 295.6H491.335C491.335 289.697 489.849 284.261 486.836 279.395L480.034 283.605ZM483.335 295.6C483.335 299.75 482.246 303.572 480.034 307.145L486.836 311.355C489.824 306.528 491.335 301.25 491.335 295.6H483.335ZM480.057 307.108C477.846 310.594 474.825 313.379 470.903 315.471L474.668 322.529C479.746 319.821 483.824 316.106 486.813 311.392L480.057 307.108ZM471.458 322.773C476.108 324.41 480.04 327.243 483.292 331.374L489.578 326.426C485.431 321.157 480.262 317.39 474.113 315.227L471.458 322.773ZM483.292 331.374C486.445 335.38 487.985 339.811 487.985 344.8H495.985C495.985 337.989 493.825 331.82 489.578 326.426L483.292 331.374ZM487.985 344.8C487.985 349.267 486.837 353.342 484.526 357.108L491.344 361.292C494.434 356.258 495.985 350.733 495.985 344.8H487.985ZM484.512 357.13C482.269 360.841 479.269 363.758 475.459 365.922L479.411 372.878C484.402 370.042 488.402 366.159 491.358 361.27L484.512 357.13ZM475.52 365.888C473.681 366.891 471.589 367.668 469.217 368.195L470.953 376.005C473.981 375.332 476.789 374.309 479.351 372.912L475.52 365.888ZM469.217 368.195C466.923 368.705 463.651 369 459.285 369V377C463.92 377 467.847 376.695 470.953 376.005L469.217 368.195ZM459.285 369H413.085V377H459.285V369ZM417.085 373V268.6H409.085V373H417.085ZM413.085 272.6H456.885V264.6H413.085V272.6ZM516.02 268.6V264.6H508.47L512.711 270.847L516.02 268.6ZM605.12 268.6L608.434 270.841L612.655 264.6H605.12V268.6ZM563.42 330.25L560.107 328.009L559.42 329.024V330.25H563.42ZM563.42 373V377H567.42V373H563.42ZM557.87 373H553.87V377H557.87V373ZM557.87 330.25H561.87V329.021L561.18 328.003L557.87 330.25ZM516.02 272.6H605.12V264.6H516.02V272.6ZM601.807 266.359L560.107 328.009L566.734 332.491L608.434 270.841L601.807 266.359ZM559.42 330.25V373H567.42V330.25H559.42ZM563.42 369H557.87V377H563.42V369ZM561.87 373V330.25H553.87V373H561.87ZM561.18 328.003L519.33 266.353L512.711 270.847L554.561 332.497L561.18 328.003Z" fill="white" mask="url(#path-17-outside-1_750_5)"/>
<path d="M205 347.5L197.5 256.159C197.5 256.159 192 163.641 192 162.5C192 161.52 179.097 153.006 174.5 150.62C173.743 150.227 173.212 150 173 150C171.5 150 144 150 142.5 150C142.211 150 141.294 150.42 140 151.107C134.567 153.992 122.5 161.578 122.5 162.5C122.5 162.736 122.244 166.761 121.837 173C121.022 185.507 119.602 206.908 118.432 224.5C117.362 240.591 116.5 253.495 116.5 253.495L109 349" stroke="white" stroke-width="4"/>
<path d="M187.429 113.9L173.307 107.67L172.922 107.5H172.5H142.5H142.089L141.712 107.662L127.072 113.936L127.078 113.691C127.124 111.671 127.187 108.965 127.249 106.224C127.352 101.736 127.455 97.1084 127.489 95.2709C127.838 95.0017 128.356 94.6456 129.023 94.2191C130.447 93.3082 132.389 92.18 134.401 91.0747C136.409 89.9711 138.455 88.908 140.079 88.1258C140.894 87.7332 141.58 87.4223 142.092 87.214C142.351 87.109 142.538 87.0409 142.661 87.0024C142.663 87.0015 142.666 87.0008 142.668 87H142.684H142.701H142.719H142.738H142.758H142.778H142.798H142.819H142.841H142.864H142.886H142.91H142.934H142.958H142.984H143.009H143.036H143.062H143.09H143.118H143.146H143.175H143.205H143.235H143.265H143.296H143.328H143.36H143.393H143.426H143.46H143.494H143.529H143.565H143.6H143.637H143.674H143.711H143.749H143.787H143.826H143.865H143.905H143.946H143.986H144.028H144.069H144.112H144.154H144.198H144.241H144.285H144.33H144.375H144.421H144.467H144.513H144.56H144.607H144.655H144.703H144.752H144.801H144.851H144.9H144.951H145.002H145.053H145.105H145.157H145.209H145.262H145.316H145.37H145.424H145.478H145.533H145.589H145.645H145.701H145.757H145.814H145.872H145.929H145.988H146.046H146.105H146.164H146.224H146.284H146.344H146.405H146.466H146.528H146.59H146.652H146.715H146.777H146.841H146.904H146.968H147.033H147.097H147.162H147.228H147.293H147.359H147.425H147.492H147.559H147.626H147.694H147.762H147.83H147.898H147.967H148.036H148.106H148.176H148.246H148.316H148.386H148.457H148.529H148.6H148.672H148.744H148.816H148.889H148.961H149.035H149.108H149.182H149.255H149.33H149.404H149.479H149.554H149.629H149.704H149.78H149.856H149.932H150.008H150.085H150.162H150.239H150.316H150.393H150.471H150.549H150.627H150.706H150.784H150.863H150.942H151.021H151.101H151.18H151.26H151.34H151.42H151.5H151.581H151.662H151.743H151.824H151.905H151.986H152.068H152.15H152.232H152.314H152.396H152.478H152.561H152.644H152.727H152.81H152.893H152.976H153.059H153.143H153.227H153.311H153.395H153.479H153.563H153.647H153.732H153.816H153.901H153.986H154.071H154.156H154.241H154.326H154.411H154.497H154.582H154.668H154.754H154.839H154.925H155.011H155.097H155.183H155.269H155.356H155.442H155.528H155.615H155.701H155.788H155.875H155.961H156.048H156.135H156.222H156.308H156.395H156.482H156.569H156.656H156.743H156.83H156.917H157.005H157.092H157.179H157.266H157.353H157.44H157.528H157.615H157.702H157.789H157.877H157.964H158.051H158.138H158.225H158.312H158.4H158.487H158.574H158.661H158.748H158.835H158.922H159.009H159.096H159.183H159.27H159.356H159.443H159.53H159.617H159.703H159.79H159.876H159.963H160.049H160.135H160.221H160.307H160.394H160.48H160.565H160.651H160.737H160.823H160.908H160.994H161.079H161.164H161.249H161.334H161.419H161.504H161.589H161.674H161.758H161.843H161.927H162.011H162.095H162.179H162.263H162.346H162.43H162.513H162.596H162.679H162.762H162.845H162.928H163.01H163.093H163.175H163.257H163.339H163.42H163.502H163.583H163.664H163.745H163.826H163.907H163.987H164.067H164.147H164.227H164.307H164.386H164.466H164.545H164.623H164.702H164.781H164.859H164.937H165.015H165.092H165.17H165.247H165.324H165.4H165.477H165.553H165.629H165.705H165.78H165.856H165.931H166.005H166.08H166.154H166.228H166.302H166.375H166.449H166.522H166.594H166.667H166.739H166.811H166.882H166.953H167.024H167.095H167.166H167.236H167.306H167.375H167.444H167.513H167.582H167.65H167.718H167.786H167.853H167.92H167.987H168.054H168.12H168.186H168.251H168.316H168.381H168.445H168.509H168.573H168.637H168.7H168.762H168.825H168.887H168.948H169.01H169.071H169.131H169.191H169.251H169.311H169.37H169.428H169.487H169.545H169.602H169.659H169.716H169.772H169.828H169.884H169.939H169.994H170.048H170.102H170.156H170.209H170.262H170.314H170.366H170.417H170.468H170.519H170.569H170.619H170.668H170.717H170.765H170.813H170.861H170.908H170.954H171.001H171.046H171.092H171.136H171.181H171.224H171.268H171.311H171.353H171.395H171.437H171.478H171.518H171.558H171.598H171.637H171.675H171.713H171.751H171.788H171.825H171.861H171.896H171.931H171.966H172H172.033H172.066H172.099H172.13H172.162H172.193H172.223H172.253H172.282H172.311H172.339H172.366H172.393H172.42H172.446H172.471H172.496H172.52H172.533C172.612 87.0388 172.7 87.0827 172.798 87.1314C173.233 87.3472 173.855 87.657 174.601 88.0324C176.095 88.7838 178.083 89.7956 180.068 90.8414C182.06 91.8907 184.021 92.9598 185.473 93.8286C186.135 94.2244 186.654 94.5568 187.012 94.8125C187.046 96.7034 187.149 101.407 187.25 105.973C187.313 108.777 187.376 111.545 187.422 113.612L187.429 113.9Z" stroke="white" stroke-width="4"/>
<path d="M127.483 135.913L127.454 135.93L127.427 135.947L114.453 144.2C114.621 141.596 114.784 139.092 114.919 137.027C115.021 135.479 115.106 134.177 115.166 133.262L115.199 132.765L137.322 117H177.371L198.787 132.139L199.424 144.368L186.55 136.423L186.526 136.408L186.501 136.394L178.501 131.769L178.036 131.5H177.5H156H135.5H134.953L134.483 131.778L127.483 135.913ZM114.137 149.142L129.546 139.34L136.047 135.5H156H176.963L184.474 139.842L199.676 149.225L200.458 164.253L193.541 171.632L193 172.209V173V185.758C190.03 183.741 186.446 181.236 183.273 179C181.082 177.456 179.095 176.045 177.657 175.02C176.937 174.507 176.355 174.091 175.953 173.804L175.489 173.473L175.369 173.386L175.339 173.365L175.331 173.359L175.329 173.358L175.329 173.357C175.329 173.357 175.329 173.357 174.163 174.983L175.329 173.357L174.806 172.983H174.163H139.332H138.691L138.17 173.355L121.121 185.528L121.499 173.061L121.527 172.134L120.839 171.514L120.839 171.514L120.838 171.513L120.834 171.51L120.818 171.495L120.755 171.438C120.726 171.413 120.691 171.381 120.649 171.343C120.609 171.307 120.564 171.265 120.513 171.219C120.304 171.029 120.004 170.756 119.643 170.425C118.921 169.762 117.957 168.869 116.987 167.946C116.013 167.019 115.049 166.078 114.318 165.313C113.951 164.928 113.665 164.612 113.473 164.378C113.461 164.362 113.449 164.348 113.438 164.334C113.437 164.312 113.436 164.289 113.435 164.264C113.426 163.984 113.424 163.597 113.431 163.104C113.445 162.123 113.492 160.8 113.564 159.238C113.696 156.385 113.907 152.789 114.137 149.142Z" stroke="white" stroke-width="4"/>
<path d="M127 101.5C120.732 96.9986 116 93.9501 116 90.5C116 84.6113 134 69.5 134 69.5C134 69.5 147 61.5 157.5 60C166.202 61.4166 180.5 69.5 180.5 69.5C180.5 69.5 199 84.4181 199 90.5C199 94.1534 194.81 96.7423 187.5 101.5" stroke="white" stroke-width="4"/>
<path d="M118.5 85.5L144.5 77.0001L171 77.0001L197 85.5" stroke="white" stroke-width="4"/>
<path d="M115 265L137.204 250H175.244C175.244 250 190.833 260.573 198 265" stroke="white" stroke-width="4"/>
<path d="M179 228.853V193.71L194.041 203.605L195.363 238.432L179 228.853Z" stroke="white" stroke-width="4"/>
</svg>
